<svg aria-hidden="true" style="width:0;height:0;position:absolute;overflow:hidden" xmlns="http://www.w3.org/2000/svg"><defs><symbol id="arrow" viewBox="0 0 82 32"><path d="M81.414 17.414c.362-.362.586-.862.586-1.414s-.224-1.052-.586-1.414L68.686 1.858a2 2 0 1 0-2.829 2.827l.001.001L77.172 16 65.858 27.314a2 2 0 0 0 2.829 2.827l-.001.001 12.728-12.728zM0 18h80v-4H0v4z"/></symbol><symbol id="bell" viewBox="0 0 32 32"><path fill="#f8d24e" style="fill:var(--color2,#f8d24e)" d="M16 0c8.837 0 16 7.163 16 16s-7.163 16-16 16S0 24.837 0 16 7.163 0 16 0z"/><path fill="#131313" style="fill:var(--color3,#131313)" d="M14.688 4.874c-2.861.424-5.218 2.013-6.085 4.093-.276.657-.351 1.061-.351 1.853.005.585.026.802.117 1.118.186.621.319.936.595 1.381l.256.414-.288.352c-2.271 2.826-2.521 6.8-.627 9.931.707 1.175 1.862 2.329 2.989 3.002l.335.196 9.175-.077.218-.119c.761-.429 1.835-1.387 2.436-2.163a9.003 9.003 0 0 0 1.737-3.993l.007-.053c.085-.533.085-2.112-.005-2.614-.271-1.547-.851-2.872-1.766-4.047a4.693 4.693 0 0 1-.314-.424c0-.01.096-.171.207-.352.26-.414.495-.947.622-1.412.143-.518.143-1.811 0-2.329-.511-1.837-2.042-3.369-4.207-4.212-.607-.238-1.644-.492-2.314-.574-.622-.072-2.159-.058-2.739.031zm3.238.843c2.84.554 4.92 2.292 5.303 4.435.085.481.032 1.299-.111 1.754a5.58 5.58 0 0 1-.723 1.412c-.128.181-.234.388-.234.456s.111.243.271.419c1.329 1.475 2.031 3.322 2.031 5.32-.005 2.272-.877 4.264-2.558 5.827a8.892 8.892 0 0 1-.915.75l-.399.269-8.792.036-.34-.218c-1.234-.801-2.346-2.126-2.963-3.534a7.945 7.945 0 0 1-.223-5.697c.335-.963.782-1.749 1.462-2.577.277-.332.404-.528.404-.621 0-.078-.138-.332-.319-.595-.638-.927-.899-1.956-.744-2.929.16-.983.606-1.791 1.431-2.593 1.074-1.04 2.574-1.728 4.335-1.987.728-.109 2.34-.067 3.085.072z"/><path fill="#131313" style="fill:var(--color3,#131313)" d="M14.927 6.628c-2.18.357-3.888 1.568-4.446 3.157-.128.357-.149.497-.149 1.009s.021.652.149 1.009c.079.228.228.544.33.704.276.445.399.461.947.129a8.462 8.462 0 0 1 2.683-1.062l.056-.01c.659-.134 1.925-.186 2.643-.103a8.737 8.737 0 0 1 3.313 1.107c.276.16.559.294.627.294.404 0 .92-1.164.92-2.069 0-2.013-1.925-3.736-4.653-4.166-.58-.093-1.862-.093-2.42 0zm2.633.828c.915.196 1.755.57 2.388 1.061.851.657 1.308 1.573 1.233 2.458-.026.352-.159.828-.239.88-.022.01-.32-.114-.66-.279a10.17 10.17 0 0 0-2.254-.779l-.07-.013c-.495-.103-.702-.119-1.808-.114-1.091 0-1.319.016-1.792.114a9.613 9.613 0 0 0-2.245.766c-.792.378-.75.383-.893-.083-.186-.605-.069-1.407.292-2.013.192-.321.718-.854 1.101-1.117.729-.502 1.367-.73 2.739-.979.282-.051 1.846.021 2.207.099zm-.867 6.675c-.149.187-.149.363.005.513.101.099.202.124.57.15a4.673 4.673 0 0 1 2.027.623l-.022-.012c.436.259 1.101.885 1.399 1.335.442.646.744 1.573.744 2.257 0 .238.022.31.133.413.17.171.394.171.559 0 .117-.119.122-.15.09-.657-.149-2.505-2.292-4.595-4.856-4.736l-.532-.031-.116.145z"/></symbol><symbol id="cow" viewBox="0 0 32 32"><path fill="#f8d24e" style="fill:var(--color2,#f8d24e)" d="M16 0c8.837 0 16 7.163 16 16s-7.163 16-16 16S0 24.837 0 16 7.163 0 16 0z"/><path fill="#131313" style="fill:var(--color3,#131313)" d="M8.922 4.618c-.188.163-.725 1.283-.918 1.894-.229.757-.307 1.325-.276 2.109.042 1.12.323 1.97.943 2.857.162.233.292.433.292.449 0 .011-.099.022-.224.022-.538 0-1.544.179-2.315.411-1.225.369-1.944 1.012-1.944 1.732 0 .255.229.687.474.909.474.428 1.512.834 2.627 1.028.386.07 1.533.189 1.788.195.047 0 .063.25.063 1.066 0 .703.026 1.25.078 1.585.188 1.201.771 2.472 1.542 3.371l.266.308-.177.287c-.26.406-.36.714-.39 1.174-.079 1.104.609 2.083 1.939 2.771 2.532 1.315 6.468.801 7.944-1.039.719-.899.803-1.926.234-2.857l-.177-.287.318-.384a6.655 6.655 0 0 0 1.272-2.332c.244-.768.339-1.51.339-2.684 0-.535.015-.979.042-.979a22.66 22.66 0 0 0 1.757-.195c1.121-.195 2.138-.595 2.627-1.028.245-.222.474-.655.474-.909 0-.801-.813-1.45-2.325-1.84-.495-.13-1.428-.287-1.882-.314l-.214-.017.235-.324c.292-.395.657-1.163.797-1.667.396-1.455.151-3.149-.699-4.767-.354-.671-.599-.828-.886-.563-.109.104-.156.244-.26.753-.323 1.618-.923 2.9-1.798 3.846l-.386.422h-8.246l-.344-.373c-.854-.941-1.475-2.272-1.798-3.896-.104-.509-.151-.649-.26-.752-.172-.157-.339-.152-.531.016zm.666 3.209a8.636 8.636 0 0 0 1.027 1.699l.323.417-.339.254c-.318.243-.615.59-.845.986l-.099.178-.25-.34c-.855-1.18-1.069-2.624-.615-4.124.219-.724.214-.719.412-.092.094.303.271.763.386 1.023zm13.568-1.142c.189.524.298 1.129.298 1.76v.067-.003c0 .984-.26 1.818-.808 2.564l-.245.335-.182-.308a3.267 3.267 0 0 0-.903-.994l-.01-.007a1.26 1.26 0 0 1-.25-.195c0-.016.099-.141.224-.276.579-.644 1.199-1.802 1.507-2.797.093-.308.188-.563.203-.563s.094.19.166.417zm-2.663 3.956c.579.243 1.131.941 1.22 1.531.047.325.156.531.297.563.063.01.495.049.959.081 1.647.109 2.945.46 3.498.941.255.227.229.417-.078.65-.615.465-1.944.817-3.3.877-.897.038-1.084.064-1.204.189-.089.092-.099.189-.099 1.169 0 1.326-.068 2.089-.235 2.705-.234.838-.698 1.732-1.24 2.365l-.224.26-.464-.276a5.646 5.646 0 0 0-1.681-.69l-.039-.008c-1.976-.471-4.16-.184-5.629.741l-.339.216-.214-.254a7.865 7.865 0 0 1-.933-1.482c-.401-.931-.521-1.688-.521-3.355 0-1.618.083-1.499-1.116-1.564-1.533-.081-2.701-.357-3.436-.822-.542-.346-.453-.655.303-1.018.724-.352 1.72-.563 3.101-.649 1.074-.07 1.1-.086 1.199-.606.146-.785.724-1.434 1.455-1.64.182-.054 1.204-.065 4.332-.06l4.092.011.297.125zm-2.929 11.2c1.277.314 2.231.898 2.643 1.623.099.168.141.34.161.606.021.33.006.411-.12.682-.579 1.229-2.705 2.04-4.868 1.856-2.601-.216-4.311-1.667-3.638-3.09.365-.768 1.6-1.504 2.903-1.72.214-.032.428-.07.469-.081s.511-.011 1.043 0c.724.017 1.073.049 1.407.125z"/><path fill="#131313" style="fill:var(--color3,#131313)" d="M12.393 13.351c-.323.109-.542.25-.834.541-.256.243-.276.53-.063.703.198.162.386.141.625-.07.303-.265.538-.374.829-.374.292-.005.516.098.829.374.239.211.427.232.625.07.104-.087.136-.157.136-.32 0-.167-.036-.243-.219-.427-.516-.519-1.283-.719-1.929-.498zm6.077-.006c-.333.125-.761.406-.932.617-.167.206-.173.438 0 .612.172.184.38.173.63-.033.615-.509 1.074-.525 1.642-.054.146.125.312.222.365.222.255 0 .464-.227.464-.498 0-.173-.433-.573-.824-.763-.433-.211-.948-.249-1.345-.102zm-5.321 10.016c-.151.146-.204.356-.125.525.058.135.146.189.506.287.162.043.23.097.287.232.073.179.078.179.48.195l.401.017v-.152c-.005-.216-.125-.53-.282-.746-.182-.25-.5-.412-.86-.444-.245-.021-.307-.011-.406.087zm4.978-.038c-.26.07-.636.422-.74.698a1.837 1.837 0 0 0-.099.487v.006c-.01.232.01.287.136.4.307.271.714.06.714-.373 0-.211.156-.357.433-.411.292-.054.396-.173.401-.449 0-.363-.323-.503-.845-.357z"/></symbol><symbol id="facebook" viewBox="0 0 32 32"><path fill="#f8d24e" style="fill:var(--color2,#f8d24e)" d="M16 32c8.837 0 16-7.163 16-16S24.837 0 16 0 0 7.163 0 16s7.163 16 16 16z"/><path fill="#84a178" style="fill:var(--color4,#84a178)" d="M20.446 15.981h-2.611V25.6H13.88v-9.619H12v-3.379h1.88v-2.187c0-1.564.739-4.014 3.991-4.014l2.929.012v3.281h-2.125c-.348 0-.839.176-.839.922v1.989h2.955l-.345 3.377z"/></symbol><symbol id="github" viewBox="0 0 32 32"><path fill="#f8d24e" style="fill:var(--color2,#f8d24e)" d="M32 16c0 8.837-7.163 16-16 16S0 24.837 0 16 7.163 0 16 0s16 7.163 16 16z"/><path fill="#84a178" style="fill:var(--color4,#84a178)" d="M16 6.588c-5.17 0-9.412 4.242-9.412 9.412 0 4.411 3.096 8.419 7.206 9.412v-3.113a2.314 2.314 0 0 1-1.196-.031c-.556-.164-1.008-.535-1.344-1.099-.214-.36-.593-.753-.988-.724l-.097-1.098c.856-.073 1.594.521 2.033 1.258.196.328.421.52.709.605.278.083.577.043.925-.08.088-.697.408-.958.649-1.327-2.452-.365-3.429-1.666-3.816-2.692-.514-1.364-.238-3.066.67-4.143.018-.021.05-.075.038-.113-.417-1.259.09-2.3.109-2.41.481.141.559-.143 2.089.786l.264.159c.111.066.075.028.186.019a7.787 7.787 0 0 1 1.97-.276h.006a8.021 8.021 0 0 1 2.002.284l.086.009c-.008-.002.024-.006.075-.037 1.911-1.158 1.842-.779 2.355-.946.019.111.519 1.169.106 2.411-.056.171 1.656 1.739.708 4.256-.388 1.026-1.365 2.328-3.816 2.693.314.48.692.734.69 1.722v3.886c4.109-.993 7.206-5 7.206-9.412 0-5.17-4.242-9.412-9.412-9.412z"/></symbol><symbol id="ice_cream" viewBox="0 0 32 32"><path fill="#f8d24e" style="fill:var(--color2,#f8d24e)" d="M16 0c8.837 0 16 7.163 16 16s-7.163 16-16 16S0 24.837 0 16 7.163 0 16 0z"/><path style="fill:var(--color5,#000)" d="M16.078 4.557c.058.155.173.902.173 1.133v.008c0 .589-.229 1.124-.603 1.522l.001-.001c-.323.347-.646.54-1.422.853-.863.352-1.22.564-1.624.964-.41.41-.651.858-.737 1.384-.097.573 0 .979.294 1.21l.149.115-.236.15c-.477.314-1.344 1.051-1.494 1.277-.289.434-.26.838.067 1.003l.154.077-.173.164c-.26.246-.314.415-.275.858.024.294.015.454-.052.694-.082.314-.082.318.024.54.106.217.405.492.675.607.13.058.134.077.164.52.014.256.038 1.07.058 1.812.015.742.049 1.422.077 1.504a.576.576 0 0 0 .198.26c.279.193.472.401.597.641.14.275.294.95.762 3.283l.328 1.638.202.193c.385.381 1.123.554 2.338.554 1.219 0 1.947-.169 2.333-.55l.207-.197.298-1.519c.66-3.321.718-3.504 1.234-3.914.159-.131.314-.289.342-.362.034-.082.068-.714.092-1.668.019-.848.049-1.687.068-1.866l.029-.323.314-.237c.395-.303.549-.578.549-1.002-.004-.501-.333-1.051-.93-1.542l-.285-.231.14-.198c.583-.804.217-1.918-.868-2.66l-.328-.227.12-.125c.535-.573.622-2.285.173-3.475-.269-.708-.887-1.48-1.644-2.049-.37-.28-1.393-.897-1.484-.897-.019 0-.019.034-.004.077zm1.388 1.683c.256.251.564.593.685.766.718 1.003.901 2.261.467 3.187-.173.376-.694.934-1.176 1.267-.737.511-2.396 1.37-3.552 1.841-1.86.757-2.941.902-3.066.405-.049-.188.092-.337.685-.733.534-.366 2.935-2.15 2.979-2.222.014-.019-.232.092-.54.246-1.046.531-1.542.429-1.518-.308.014-.535.4-1.142.934-1.489.136-.086.555-.28.941-.434 1.267-.511 1.653-.771 2.082-1.412.256-.381.535-1.085.554-1.384.005-.106.024-.188.038-.188s.232.207.486.458zm1.315 5.476c.352.197.718.535.877.8.28.477.136.954-.467 1.562-.655.666-1.773 1.302-3.003 1.706-1.133.371-2.217.545-3.77.598l-.964.034.627.038c.81.053 2.376.005 2.983-.092 1.615-.256 2.989-.767 3.972-1.47.222-.159.453-.289.516-.289.159 0 .853.666.993.945a.727.727 0 0 1 .082.429c-.072.641-.853.984-2.737 1.21-2.304.275-5.316.005-6.604-.588-.608-.28-.708-.439-.554-.863.048-.135.058-.294.038-.521-.024-.299-.019-.337.086-.448.241-.26.646-.41 2.131-.786.52-.134 1.229-.347 1.566-.472.819-.299 2.357-1.075 3.07-1.552.67-.444.767-.463 1.157-.241zm-6.401 5.899c1.012.294 1.909.381 3.577.347 1.253-.024 2.024-.101 3.137-.299.227-.038.424-.072.449-.072.053 0 .038 1.851-.019 2.338-.063.516-.203.916-.352 1.012-.154.101-.925.207-1.957.265-2.116.115-4.29 0-4.964-.27-.366-.149-.405-.342-.41-2.131 0-1.19.01-1.354.072-1.33.038.014.25.077.467.14zm1.143 4.098c.348.044.723.086.838.101l.208.024-.184.202c-.236.255-.598.766-.728 1.027-.149.299-.198.318-.419.198l-.188-.106-.106-.655a16.202 16.202 0 0 0-.156-.876l.02.119c-.044-.125-.087-.125.713-.033zm5.138-.053c0 .01-.024.134-.049.275-.029.144-.149.93-.269 1.749-.246 1.711-.41 2.516-.559 2.786-.207.362-.704.573-1.508.641-.314.024-1.258-.038-1.311-.087-.038-.043.79-1.07.921-1.137.12-.068.154-.058.563.154.477.252.719.29.719.131s-.125-.314-.434-.525c-.284-.203-.385-.319-.385-.454 0-.038.14-.255.308-.482s.414-.588.54-.805l.237-.39.216.029c.438.063.554.058.54-.038a1.142 1.142 0 0 0-.184-.304c-.092-.12-.164-.241-.164-.265 0-.092.448-.935.593-1.114.125-.154.227-.232.227-.164zm-3.012.385c.241.159 1.147.945 1.204 1.041.024.044-.906 1.499-1.089 1.706-.019.024-.12-.024-.221-.101a14.78 14.78 0 0 0-.777-.541l-.061-.037-.651-.429.39-.66c.694-1.162.68-1.142.829-1.142.077 0 .246.072.376.164zm1.826.173c-.169.207-.308.338-.366.338-.125 0-.328-.111-.67-.362l-.285-.207.57-.034c.251-.009.479-.025.706-.047l-.046.004c.386-.062.386-.058.092.309zm-3.644 2.319c.444.173 1.196.583 1.412.767.154.125.154.134.092.289a4.75 4.75 0 0 1-.31.533l.011-.017a8.357 8.357 0 0 0-.3.491l-.023.044c-.154.299-.202.323-.52.237-.342-.102-.525-.275-.621-.589-.131-.438-.338-1.677-.314-1.87.01-.072.212-.029.573.116z"/></symbol><symbol id="logo" viewBox="0 0 30 32"><path fill="#f8d24e" style="fill:var(--color2,#f8d24e)" d="M15.226 17.082c1.415-3.784-1.515-5.855-3.457-7.217-.371-.278-.742-.538-1.044-.776a3.627 3.627 0 0 1-1.133-1.674l-.007-.026a3.48 3.48 0 0 1-.163-1.067c0-.345.049-.679.141-.995l-.006.025a.39.39 0 0 0-.115-.395.402.402 0 0 0-.412-.08l.003-.001c-.69.273-1.285.63-1.811 1.067l.011-.009a4.272 4.272 0 0 0-1.215 1.452l-.011.024a4.115 4.115 0 0 0-.442 1.857v.001a4.977 4.977 0 0 0-.952.978l-.01.014a3.579 3.579 0 0 0-.709 2.332v-.008a4.607 4.607 0 0 0-1.276 1.945l-.009.032a4.55 4.55 0 0 0-.124 2.376l-.005-.03a1.247 1.247 0 0 0-.609 1.065c0 .12.017.237.05.347l-.002-.009c.075.262.235.493.456.657s.49.252.767.25h.026v2.151c0 .219.089.428.245.583s.369.241.591.241h.65l1.058 9.04c.022.201.118.387.271.522s.351.21.556.21h4.404c.206 0 .404-.075.557-.21s.251-.32.275-.522l1.058-9.04h.65a.844.844 0 0 0 .591-.241.817.817 0 0 0 .245-.582v-2.152H14.347c.348 0 .663-.139.894-.365a1.24 1.24 0 0 0 .371-.883v-.014c0-.343-.142-.654-.371-.875l-.011.003zm-9.531-6.866c.535 1.98 2.599 2.759 4.482 3.455a.41.41 0 0 0 .493-.052.4.4 0 0 0 .124-.289l-.001-.028v.001a.393.393 0 0 0-.166-.295l-.001-.001a.402.402 0 0 0-.16-.068h-.003c-2.027-.758-3.939-1.464-4.084-3.488a3.32 3.32 0 0 1 .318-1.639l-.009.02a3.417 3.417 0 0 1 1.038-1.277l.009-.006c.283-.231.586-.438.906-.615a4.491 4.491 0 0 0 .002.779l-.001-.017c.047.615.216 1.181.484 1.686l-.011-.023c.281.531.648.98 1.087 1.343l.007.006c.308.26.691.527 1.114.812.977.692 2.087 1.465 2.792 2.511.441.619.704 1.39.704 2.223 0 .538-.11 1.051-.309 1.517l.01-.025h-1.641c-3.382 0-7.27-.922-8.038-3.506a2.94 2.94 0 0 1 .009-1.646l-.005.021a2.968 2.968 0 0 1 .87-1.377l.003-.003-.019-.018zM8.74 22.693l1.24 1.222-1.241 1.222-1.24-1.23 1.24-1.215zm2.844 3.21-1.025 1.01-1.24-1.222 1.241-1.219 1.076 1.057-.052.374zM8.74 28.706l-1.241-1.222 1.241-1.222 1.24 1.222-1.241 1.222zm-.568-3.008L6.931 26.92l-1.032-1.018-.044-.366 1.077-1.057 1.24 1.219zM6.36 27.484l-.249.245-.063-.556.312.311zm-.13 1.251.702-.692 1.363 1.354a.763.763 0 0 0 .026.081H6.316l-.086-.743zm4.322-.691.702.692-.086.732h-2.06l1.444-1.424zm.816-.315-.249-.245.316-.311-.067.556zm.372-3.199-.62-.622.787-.776-.167 1.398zm-1.192-1.178-1.177-1.156h2.354l-1.177 1.157zm-3.62 0-1.177-1.156h2.354l-1.177 1.157zm4.01 7.817h-4.4a.03.03 0 0 1-.026-.025l-.104-.879h4.664l-.1.879a.03.03 0 0 1-.029.026h-.003zm3.405-12.751h-1.292a.406.406 0 0 0-.311.102.392.392 0 0 0 0 .59.403.403 0 0 0 .271.103l.042-.002h-.002.46v2.152a.032.032 0 0 1-.01.019.032.032 0 0 1-.019.007H3.986a.032.032 0 0 1-.019-.007.032.032 0 0 1-.01-.019v-2.152h7.355a.408.408 0 0 0 .261-.129.394.394 0 0 0 0-.537.402.402 0 0 0-.259-.128h-8.17a.467.467 0 0 1-.353-.117.453.453 0 0 1-.15-.335v-.001c0-.133.058-.252.149-.334a.462.462 0 0 1 .31-.119l.044.002h-.002.843a.408.408 0 0 0 .261-.129.394.394 0 0 0 0-.537.408.408 0 0 0-.259-.129h-.744a3.919 3.919 0 0 1 .056-1.707l-.006.027c.15-.579.412-1.083.764-1.511l-.005.007c.26.798.928 1.889 2.599 2.756 1.57.808 3.65 1.222 6.178 1.222h1.485a.462.462 0 0 1 .352.117.453.453 0 0 1 .15.335v.001a.449.449 0 0 1-.149.334.462.462 0 0 1-.31.119l-.044-.002H14.341z"/><path fill="#f8d24e" style="fill:var(--color2,#f8d24e)" d="m16.964 29.152-.293.448.006.004.287-.453zm3.149.152.535-.012-.014-.62-.611.104.09.528zm.037 1.647.136.518.409-.108-.01-.422-.535.012zm-4.133.079.121-.522-.003-.001-.117.523zm-2.039-.911.347-.409h-.001l-.346.409zm-.738-1.673.536.003v-.003h-.536zm.256-1.172-.48-.236v.001l.48.235zm1.642-1.402.19.501.002-.001-.192-.5zm5.263-.136.534.041.035-.452-.44-.109-.129.52zm-.131 1.679-.099.526.587.111.046-.596-.534-.042zm-1.428-.687c-.804 0-1.48.086-1.973.303a1.616 1.616 0 0 0-.651.489 1.253 1.253 0 0 0-.255.76v.015-.001h1.071v-.013c0-.043.014-.083.038-.115a.57.57 0 0 1 .228-.156c.288-.127.783-.212 1.542-.212v-1.072zm-2.879 1.566c0 .551.247 1.006.709 1.307l.585-.897a.433.433 0 0 1-.223-.409h-1.071zm.714 1.31c.438.277 1.015.381 1.663.381v-1.071c-.559 0-.899-.095-1.089-.215l-.574.905zm1.663.381c.635 0 1.256-.051 1.863-.154l-.179-1.056c-.5.088-1.077.139-1.665.139h-.02.001v1.071zm1.238-.67.036 1.648 1.071-.024-.037-1.647-1.071.024zm.435 1.118a7.964 7.964 0 0 1-2.029.244v1.071c.821 0 1.589-.092 2.302-.279l-.273-1.036zm-2.029.244c-.757 0-1.369-.06-1.846-.169l-.241 1.044c.582.134 1.281.197 2.087.197v-1.071zm-1.85-.17c-.511-.114-.881-.236-1.127-.356l-.47.962c.353.172.814.316 1.363.439l.234-1.046zm-1.126-.356a3.264 3.264 0 0 1-.688-.444l.005.004-.693.817c.263.222.561.417.881.574l.026.011.47-.962zm-.685-.441c-.364-.308-.55-.709-.547-1.262l-1.071-.005c-.004.842.301 1.556.927 2.085l.692-.818zm-.547-1.264c0-.36.07-.669.202-.936l-.962-.471c-.211.43-.311.902-.311 1.407h1.071zm.201-.936c.243-.495.673-.88 1.351-1.137l-.38-1.002c-.884.336-1.549.886-1.933 1.666l.961.473zm1.354-1.138c.712-.273 1.507-.414 2.392-.414v-1.071c-.999 0-1.926.159-2.776.485l.384 1zm2.392-.414c.901 0 1.751.1 2.549.298l.258-1.04c-.89-.221-1.826-.33-2.807-.33v1.071zm2.144-.263-.13 1.679 1.068.084.131-1.679-1.068-.083zm.503 1.194a8.343 8.343 0 0 0-1.528-.161v1.071c.377 0 .818.046 1.328.142l.199-1.053zm5.226.855-.003.536.544.003-.005-.544-.536.005zm-.23-.695-.364.393.005.004.359-.397zm-1.334.053.371.386.004-.004-.375-.383zm-.324.632-.529-.087-.101.619.627.003.003-.536zm3.938 2.856.324.427.192-.146.018-.241-.534-.039zm-1.156.429-.115-.523h-.003l.118.523zm-4.017-.146-.182.504.004.001.178-.505zm-.915-.487-.332.42.003.002.003.002.326-.425zm-.612-.769-.48.237.001.002.479-.24zm.627-3.248zm4.896-.581.214-.49-.005-.002-.209.493zm1.23 1.13-.482.234.001.003.48-.237zm.209.937.534.038.001-.019v-.02h-.536zm-.063.863-.002.536.501.002.036-.499-.534-.039zm-4.242-.021.003-.536-.699-.003.178.676.518-.137zm.607.748-.263.466.002.001.261-.468zm3.253-.183v-.536h-.107l-.098.041.206.495zm.282 0 .534.039.043-.575h-.577v.536zm-1.613-1.523c-.004-.387-.094-.803-.406-1.087l-.72.794c-.006-.005.006.001.021.047a.87.87 0 0 1 .033.257l1.071-.011zm-.402-1.082c-.281-.261-.65-.347-1.013-.347v1.071c.208 0 .272.05.284.061l.729-.785zm-1.013-.348c-.399 0-.77.125-1.06.409l.75.766c.059-.058.144-.103.31-.103v-1.072zm-1.056.406a1.63 1.63 0 0 0-.481.923l-.001.009 1.057.174a.568.568 0 0 1 .166-.334l-.742-.773zm.044 1.555 1.889.01.006-1.071-1.889-.011-.006 1.071zm3.618 1.893c-.118.089-.404.213-.948.333l.23 1.046c.565-.125 1.05-.287 1.365-.525l-.647-.854zm-.951.334a6.544 6.544 0 0 1-1.496.175h-.002v1.071c.566 0 1.145-.068 1.735-.202l-.236-1.045zm-1.498.175c-.505 0-.921-.024-1.252-.068l-.143 1.062c.394.053.861.078 1.395.078v-1.071zm-1.252-.069a4.79 4.79 0 0 1-1.004-.247l.034.011-.357 1.01a5.96 5.96 0 0 0 1.184.288l.143-1.062zm-.966-.234a2.82 2.82 0 0 1-.772-.408l-.652.85c.305.234.661.42 1.058.565l.365-1.007zm-.766-.403a1.726 1.726 0 0 1-.461-.578l-.004-.01-.958.479c.186.377.442.694.753.945l.005.004.666-.84zm-.464-.586c-.113-.228-.18-.521-.18-.897h-1.071c0 .502.09.965.29 1.372l.96-.475zm-.18-.898c0-.377.068-.71.196-1.006l-.983-.426a3.57 3.57 0 0 0-.285 1.432h1.071zm.196-1.005c.135-.311.3-.542.487-.707l-.713-.8a3.036 3.036 0 0 0-.757 1.082l.983.426zm.488-.708c.576-.513 1.454-.811 2.719-.811v-1.071c-1.419 0-2.591.333-3.432 1.083l.713.799zm2.719-.811a4.08 4.08 0 0 1 1.611.323l.418-.986a5.069 5.069 0 0 0-2.01-.409h-.021.001v1.071zm1.606.321c.474.207.78.5.961.873l.963-.468c-.307-.632-.82-1.092-1.497-1.387l-.428.982zm.963.877c.1.202.154.432.154.699h1.071c0-.417-.086-.811-.265-1.174l-.96.474zm.156.659-.063.863 1.068.078.063-.863-1.068-.077zm.474.367-4.242-.021-.005 1.071 4.242.021.005-1.071zm-4.763.651c.126.475.432.834.862 1.078l.527-.933c-.212-.12-.31-.258-.352-.418l-1.036.274zm.863 1.079c.434.243.978.34 1.585.34v-1.071c-.509 0-.848-.084-1.062-.204l-.523.935zm1.585.34c.651 0 1.367-.176 2.136-.496l-.412-.989c-.688.287-1.26.414-1.724.414v1.071zm1.93-.455h.283v-1.071h-.282v1.071zm-.251-.576-.1 1.329 1.068.08.099-1.329-1.068-.08z"/></symbol><symbol id="telegram" viewBox="0 0 32 32"><path fill="#f8d24e" style="fill:var(--color2,#f8d24e)" d="M32 16c0 8.837-7.163 16-16 16S0 24.837 0 16 7.163 0 16 0s16 7.163 16 16z"/><path fill="#84a178" style="fill:var(--color4,#84a178)" d="m12.867 18.376-.317 4.169c.455 0 .651-.183.888-.401l2.13-1.901 4.414 3.018c.809.421 1.381.199 1.599-.696l2.898-12.673c.257-1.117-.433-1.554-1.221-1.28L6.225 14.698c-1.163.422-1.145 1.026-.198 1.301l4.354 1.264 10.115-5.907c.476-.295.909-.132.552.163l-8.182 6.856z"/></symbol><symbol id="arrow-right" viewBox="0 0 32 32"><path d="M8.51 3.254C8.184 3.63 8 4.14 8 4.671s.183 1.041.51 1.417l8.62 9.924-8.62 9.924c-.317.378-.493.884-.489 1.41s.187 1.029.51 1.4.76.583 1.216.587c.457.005.896-.198 1.225-.563l9.851-11.341c.326-.376.51-.886.51-1.417s-.183-1.041-.51-1.417L10.972 3.254c-.327-.376-.769-.587-1.231-.587s-.905.211-1.231.587z"/></symbol></defs></svg>