<svg aria-hidden="true" style="width:0;height:0;position:absolute;overflow:hidden" xmlns="http://www.w3.org/2000/svg"><defs><symbol id="arrow" viewBox="0 0 82 32"><path d="M81.414 17.414c.362-.362.586-.862.586-1.414s-.224-1.052-.586-1.414L68.686 1.858a2 2 0 1 0-2.829 2.827l.001.001L77.172 16 65.858 27.314a2 2 0 0 0 2.829 2.827l-.001.001 12.728-12.728zM0 18h80v-4H0v4z"/></symbol><symbol id="bell" viewBox="0 0 32 32"><path fill="#f8d24e" style="fill:var(--color2,#f8d24e)" d="M16 0c8.837 0 16 7.163 16 16s-7.163 16-16 16S0 24.837 0 16 7.163 0 16 0z"/><path fill="#131313" style="fill:var(--color3,#131313)" d="M14.688 4.874c-2.861.424-5.218 2.013-6.085 4.093-.276.657-.351 1.061-.351 1.853.005.585.026.802.117 1.118.186.621.319.936.595 1.381l.256.414-.288.352c-2.271 2.826-2.521 6.8-.627 9.931.707 1.175 1.862 2.329 2.989 3.002l.335.196 9.175-.077.218-.119c.761-.429 1.835-1.387 2.436-2.163a9.003 9.003 0 0 0 1.737-3.993l.007-.053c.085-.533.085-2.112-.005-2.614-.271-1.547-.851-2.872-1.766-4.047a4.693 4.693 0 0 1-.314-.424c0-.01.096-.171.207-.352.26-.414.495-.947.622-1.412.143-.518.143-1.811 0-2.329-.511-1.837-2.042-3.369-4.207-4.212-.607-.238-1.644-.492-2.314-.574-.622-.072-2.159-.058-2.739.031zm3.238.843c2.84.554 4.92 2.292 5.303 4.435.085.481.032 1.299-.111 1.754a5.58 5.58 0 0 1-.723 1.412c-.128.181-.234.388-.234.456s.111.243.271.419c1.329 1.475 2.031 3.322 2.031 5.32-.005 2.272-.877 4.264-2.558 5.827a8.892 8.892 0 0 1-.915.75l-.399.269-8.792.036-.34-.218c-1.234-.801-2.346-2.126-2.963-3.534a7.945 7.945 0 0 1-.223-5.697c.335-.963.782-1.749 1.462-2.577.277-.332.404-.528.404-.621 0-.078-.138-.332-.319-.595-.638-.927-.899-1.956-.744-2.929.16-.983.606-1.791 1.431-2.593 1.074-1.04 2.574-1.728 4.335-1.987.728-.109 2.34-.067 3.085.072z"/><path fill="#131313" style="fill:var(--color3,#131313)" d="M14.927 6.628c-2.18.357-3.888 1.568-4.446 3.157-.128.357-.149.497-.149 1.009s.021.652.149 1.009c.079.228.228.544.33.704.276.445.399.461.947.129a8.462 8.462 0 0 1 2.683-1.062l.056-.01c.659-.134 1.925-.186 2.643-.103a8.737 8.737 0 0 1 3.313 1.107c.276.16.559.294.627.294.404 0 .92-1.164.92-2.069 0-2.013-1.925-3.736-4.653-4.166-.58-.093-1.862-.093-2.42 0zm2.633.828c.915.196 1.755.57 2.388 1.061.851.657 1.308 1.573 1.233 2.458-.026.352-.159.828-.239.88-.022.01-.32-.114-.66-.279a10.17 10.17 0 0 0-2.254-.779l-.07-.013c-.495-.103-.702-.119-1.808-.114-1.091 0-1.319.016-1.792.114a9.613 9.613 0 0 0-2.245.766c-.792.378-.75.383-.893-.083-.186-.605-.069-1.407.292-2.013.192-.321.718-.854 1.101-1.117.729-.502 1.367-.73 2.739-.979.282-.051 1.846.021 2.207.099zm-.867 6.675c-.149.187-.149.363.005.513.101.099.202.124.57.15a4.673 4.673 0 0 1 2.027.623l-.022-.012c.436.259 1.101.885 1.399 1.335.442.646.744 1.573.744 2.257 0 .238.022.31.133.413.17.171.394.171.559 0 .117-.119.122-.15.09-.657-.149-2.505-2.292-4.595-4.856-4.736l-.532-.031-.116.145z"/></symbol><symbol id="cow" viewBox="0 0 32 32"><path fill="#f8d24e" style="fill:var(--color2,#f8d24e)" d="M16 0c8.837 0 16 7.163 16 16s-7.163 16-16 16S0 24.837 0 16 7.163 0 16 0z"/><path fill="#131313" style="fill:var(--color3,#131313)" d="M8.922 4.618c-.188.163-.725 1.283-.918 1.894-.229.757-.307 1.325-.276 2.109.042 1.12.323 1.97.943 2.857.162.233.292.433.292.449 0 .011-.099.022-.224.022-.538 0-1.544.179-2.315.411-1.225.369-1.944 1.012-1.944 1.732 0 .255.229.687.474.909.474.428 1.512.834 2.627 1.028.386.07 1.533.189 1.788.195.047 0 .063.25.063 1.066 0 .703.026 1.25.078 1.585.188 1.201.771 2.472 1.542 3.371l.266.308-.177.287c-.26.406-.36.714-.39 1.174-.079 1.104.609 2.083 1.939 2.771 2.532 1.315 6.468.801 7.944-1.039.719-.899.803-1.926.234-2.857l-.177-.287.318-.384a6.655 6.655 0 0 0 1.272-2.332c.244-.768.339-1.51.339-2.684 0-.535.015-.979.042-.979a22.66 22.66 0 0 0 1.757-.195c1.121-.195 2.138-.595 2.627-1.028.245-.222.474-.655.474-.909 0-.801-.813-1.45-2.325-1.84-.495-.13-1.428-.287-1.882-.314l-.214-.017.235-.324c.292-.395.657-1.163.797-1.667.396-1.455.151-3.149-.699-4.767-.354-.671-.599-.828-.886-.563-.109.104-.156.244-.26.753-.323 1.618-.923 2.9-1.798 3.846l-.386.422h-8.246l-.344-.373c-.854-.941-1.475-2.272-1.798-3.896-.104-.509-.151-.649-.26-.752-.172-.157-.339-.152-.531.016zm.666 3.209a8.636 8.636 0 0 0 1.027 1.699l.323.417-.339.254c-.318.243-.615.59-.845.986l-.099.178-.25-.34c-.855-1.18-1.069-2.624-.615-4.124.219-.724.214-.719.412-.092.094.303.271.763.386 1.023zm13.568-1.142c.189.524.298 1.129.298 1.76v.067-.003c0 .984-.26 1.818-.808 2.564l-.245.335-.182-.308a3.267 3.267 0 0 0-.903-.994l-.01-.007a1.26 1.26 0 0 1-.25-.195c0-.016.099-.141.224-.276.579-.644 1.199-1.802 1.507-2.797.093-.308.188-.563.203-.563s.094.19.166.417zm-2.663 3.956c.579.243 1.131.941 1.22 1.531.047.325.156.531.297.563.063.01.495.049.959.081 1.647.109 2.945.46 3.498.941.255.227.229.417-.078.65-.615.465-1.944.817-3.3.877-.897.038-1.084.064-1.204.189-.089.092-.099.189-.099 1.169 0 1.326-.068 2.089-.235 2.705-.234.838-.698 1.732-1.24 2.365l-.224.26-.464-.276a5.646 5.646 0 0 0-1.681-.69l-.039-.008c-1.976-.471-4.16-.184-5.629.741l-.339.216-.214-.254a7.865 7.865 0 0 1-.933-1.482c-.401-.931-.521-1.688-.521-3.355 0-1.618.083-1.499-1.116-1.564-1.533-.081-2.701-.357-3.436-.822-.542-.346-.453-.655.303-1.018.724-.352 1.72-.563 3.101-.649 1.074-.07 1.1-.086 1.199-.606.146-.785.724-1.434 1.455-1.64.182-.054 1.204-.065 4.332-.06l4.092.011.297.125zm-2.929 11.2c1.277.314 2.231.898 2.643 1.623.099.168.141.34.161.606.021.33.006.411-.12.682-.579 1.229-2.705 2.04-4.868 1.856-2.601-.216-4.311-1.667-3.638-3.09.365-.768 1.6-1.504 2.903-1.72.214-.032.428-.07.469-.081s.511-.011 1.043 0c.724.017 1.073.049 1.407.125z"/><path fill="#131313" style="fill:var(--color3,#131313)" d="M12.393 13.351c-.323.109-.542.25-.834.541-.256.243-.276.53-.063.703.198.162.386.141.625-.07.303-.265.538-.374.829-.374.292-.005.516.098.829.374.239.211.427.232.625.07.104-.087.136-.157.136-.32 0-.167-.036-.243-.219-.427-.516-.519-1.283-.719-1.929-.498zm6.077-.006c-.333.125-.761.406-.932.617-.167.206-.173.438 0 .612.172.184.38.173.63-.033.615-.509 1.074-.525 1.642-.054.146.125.312.222.365.222.255 0 .464-.227.464-.498 0-.173-.433-.573-.824-.763-.433-.211-.948-.249-1.345-.102zm-5.321 10.016c-.151.146-.204.356-.125.525.058.135.146.189.506.287.162.043.23.097.287.232.073.179.078.179.48.195l.401.017v-.152c-.005-.216-.125-.53-.282-.746-.182-.25-.5-.412-.86-.444-.245-.021-.307-.011-.406.087zm4.978-.038c-.26.07-.636.422-.74.698a1.837 1.837 0 0 0-.099.487v.006c-.01.232.01.287.136.4.307.271.714.06.714-.373 0-.211.156-.357.433-.411.292-.054.396-.173.401-.449 0-.363-.323-.503-.845-.357z"/></symbol><symbol id="facebook" viewBox="0 0 32 32"><path fill="#f8d24e" style="fill:var(--color2,#f8d24e)" d="M16 32c8.837 0 16-7.163 16-16S24.837 0 16 0 0 7.163 0 16s7.163 16 16 16z"/><path d="M20.446 15.981h-2.611V25.6H13.88v-9.619H12v-3.379h1.88v-2.187c0-1.564.739-4.014 3.991-4.014l2.929.012v3.281h-2.125c-.348 0-.839.176-.839.922v1.989h2.955l-.345 3.377z"/></symbol><symbol id="github" viewBox="0 0 32 32"><path fill="#f8d24e" style="fill:var(--color2,#f8d24e)" d="M32 16c0 8.837-7.163 16-16 16S0 24.837 0 16 7.163 0 16 0s16 7.163 16 16z"/><path d="M16 6.588c-5.17 0-9.412 4.242-9.412 9.412 0 4.411 3.096 8.419 7.206 9.412v-3.113a2.314 2.314 0 0 1-1.196-.031c-.556-.164-1.008-.535-1.344-1.099-.214-.36-.593-.753-.988-.724l-.097-1.098c.856-.073 1.594.521 2.033 1.258.196.328.421.52.709.605.278.083.577.043.925-.08.088-.697.408-.958.649-1.327-2.452-.365-3.429-1.666-3.816-2.692-.514-1.364-.238-3.066.67-4.143.018-.021.05-.075.038-.113-.417-1.259.09-2.3.109-2.41.481.141.559-.143 2.089.786l.264.159c.111.066.075.028.186.019a7.787 7.787 0 0 1 1.97-.276h.006a8.021 8.021 0 0 1 2.002.284l.086.009c-.008-.002.024-.006.075-.037 1.911-1.158 1.842-.779 2.355-.946.019.111.519 1.169.106 2.411-.056.171 1.656 1.739.708 4.256-.388 1.026-1.365 2.328-3.816 2.693.314.48.692.734.69 1.722v3.886c4.109-.993 7.206-5 7.206-9.412 0-5.17-4.242-9.412-9.412-9.412z"/></symbol><symbol id="ice_cream" viewBox="0 0 32 32"><path fill="#f8d24e" style="fill:var(--color2,#f8d24e)" d="M16 0c8.837 0 16 7.163 16 16s-7.163 16-16 16S0 24.837 0 16 7.163 0 16 0z"/><path style="fill:var(--color5,#000)" d="M16.078 4.557c.058.155.173.902.173 1.133v.008c0 .589-.229 1.124-.603 1.522l.001-.001c-.323.347-.646.54-1.422.853-.863.352-1.22.564-1.624.964-.41.41-.651.858-.737 1.384-.097.573 0 .979.294 1.21l.149.115-.236.15c-.477.314-1.344 1.051-1.494 1.277-.289.434-.26.838.067 1.003l.154.077-.173.164c-.26.246-.314.415-.275.858.024.294.015.454-.052.694-.082.314-.082.318.024.54.106.217.405.492.675.607.13.058.134.077.164.52.014.256.038 1.07.058 1.812.015.742.049 1.422.077 1.504a.576.576 0 0 0 .198.26c.279.193.472.401.597.641.14.275.294.95.762 3.283l.328 1.638.202.193c.385.381 1.123.554 2.338.554 1.219 0 1.947-.169 2.333-.55l.207-.197.298-1.519c.66-3.321.718-3.504 1.234-3.914.159-.131.314-.289.342-.362.034-.082.068-.714.092-1.668.019-.848.049-1.687.068-1.866l.029-.323.314-.237c.395-.303.549-.578.549-1.002-.004-.501-.333-1.051-.93-1.542l-.285-.231.14-.198c.583-.804.217-1.918-.868-2.66l-.328-.227.12-.125c.535-.573.622-2.285.173-3.475-.269-.708-.887-1.48-1.644-2.049-.37-.28-1.393-.897-1.484-.897-.019 0-.019.034-.004.077zm1.388 1.683c.256.251.564.593.685.766.718 1.003.901 2.261.467 3.187-.173.376-.694.934-1.176 1.267-.737.511-2.396 1.37-3.552 1.841-1.86.757-2.941.902-3.066.405-.049-.188.092-.337.685-.733.534-.366 2.935-2.15 2.979-2.222.014-.019-.232.092-.54.246-1.046.531-1.542.429-1.518-.308.014-.535.4-1.142.934-1.489.136-.086.555-.28.941-.434 1.267-.511 1.653-.771 2.082-1.412.256-.381.535-1.085.554-1.384.005-.106.024-.188.038-.188s.232.207.486.458zm1.315 5.476c.352.197.718.535.877.8.28.477.136.954-.467 1.562-.655.666-1.773 1.302-3.003 1.706-1.133.371-2.217.545-3.77.598l-.964.034.627.038c.81.053 2.376.005 2.983-.092 1.615-.256 2.989-.767 3.972-1.47.222-.159.453-.289.516-.289.159 0 .853.666.993.945a.727.727 0 0 1 .082.429c-.072.641-.853.984-2.737 1.21-2.304.275-5.316.005-6.604-.588-.608-.28-.708-.439-.554-.863.048-.135.058-.294.038-.521-.024-.299-.019-.337.086-.448.241-.26.646-.41 2.131-.786.52-.134 1.229-.347 1.566-.472.819-.299 2.357-1.075 3.07-1.552.67-.444.767-.463 1.157-.241zm-6.401 5.899c1.012.294 1.909.381 3.577.347 1.253-.024 2.024-.101 3.137-.299.227-.038.424-.072.449-.072.053 0 .038 1.851-.019 2.338-.063.516-.203.916-.352 1.012-.154.101-.925.207-1.957.265-2.116.115-4.29 0-4.964-.27-.366-.149-.405-.342-.41-2.131 0-1.19.01-1.354.072-1.33.038.014.25.077.467.14zm1.143 4.098c.348.044.723.086.838.101l.208.024-.184.202c-.236.255-.598.766-.728 1.027-.149.299-.198.318-.419.198l-.188-.106-.106-.655a16.202 16.202 0 0 0-.156-.876l.02.119c-.044-.125-.087-.125.713-.033zm5.138-.053c0 .01-.024.134-.049.275-.029.144-.149.93-.269 1.749-.246 1.711-.41 2.516-.559 2.786-.207.362-.704.573-1.508.641-.314.024-1.258-.038-1.311-.087-.038-.043.79-1.07.921-1.137.12-.068.154-.058.563.154.477.252.719.29.719.131s-.125-.314-.434-.525c-.284-.203-.385-.319-.385-.454 0-.038.14-.255.308-.482s.414-.588.54-.805l.237-.39.216.029c.438.063.554.058.54-.038a1.142 1.142 0 0 0-.184-.304c-.092-.12-.164-.241-.164-.265 0-.092.448-.935.593-1.114.125-.154.227-.232.227-.164zm-3.012.385c.241.159 1.147.945 1.204 1.041.024.044-.906 1.499-1.089 1.706-.019.024-.12-.024-.221-.101a14.78 14.78 0 0 0-.777-.541l-.061-.037-.651-.429.39-.66c.694-1.162.68-1.142.829-1.142.077 0 .246.072.376.164zm1.826.173c-.169.207-.308.338-.366.338-.125 0-.328-.111-.67-.362l-.285-.207.57-.034c.251-.009.479-.025.706-.047l-.046.004c.386-.062.386-.058.092.309zm-3.644 2.319c.444.173 1.196.583 1.412.767.154.125.154.134.092.289a4.75 4.75 0 0 1-.31.533l.011-.017a8.357 8.357 0 0 0-.3.491l-.023.044c-.154.299-.202.323-.52.237-.342-.102-.525-.275-.621-.589-.131-.438-.338-1.677-.314-1.87.01-.072.212-.029.573.116z"/></symbol><symbol id="telegram" viewBox="0 0 32 32"><path fill="#f8d24e" style="fill:var(--color2,#f8d24e)" d="M32 16c0 8.837-7.163 16-16 16S0 24.837 0 16 7.163 0 16 0s16 7.163 16 16z"/><path d="m12.867 18.376-.317 4.169c.455 0 .651-.183.888-.401l2.13-1.901 4.414 3.018c.809.421 1.381.199 1.599-.696l2.898-12.673c.257-1.117-.433-1.554-1.221-1.28L6.225 14.698c-1.163.422-1.145 1.026-.198 1.301l4.354 1.264 10.115-5.907c.476-.295.909-.132.552.163l-8.182 6.856z"/></symbol><symbol id="arrow-right" viewBox="0 0 32 32"><path d="M8.51 3.254C8.184 3.63 8 4.14 8 4.671s.183 1.041.51 1.417l8.62 9.924-8.62 9.924c-.317.378-.493.884-.489 1.41s.187 1.029.51 1.4.76.583 1.216.587c.457.005.896-.198 1.225-.563l9.851-11.341c.326-.376.51-.886.51-1.417s-.183-1.041-.51-1.417L10.972 3.254c-.327-.376-.769-.587-1.231-.587s-.905.211-1.231.587z"/></symbol><symbol id="burger" viewBox="0 0 32 32"><path fill="#fff" style="fill:var(--color1,#fff)" d="M26.733 14H5.267c-.7 0-1.267.425-1.267.95v.1c0 .525.567.95 1.267.95h21.466c.7 0 1.267-.425 1.267-.95v-.1c0-.525-.567-.95-1.267-.95zm0 6H5.267c-.7 0-1.267.425-1.267.95v.1c0 .525.567.95 1.267.95h21.466c.7 0 1.267-.425 1.267-.95v-.1c0-.525-.567-.95-1.267-.95zm0-12H5.267C4.567 8 4 8.425 4 8.95v.1c0 .525.567.95 1.267.95h21.466c.7 0 1.267-.425 1.267-.95v-.1c0-.525-.567-.95-1.267-.95z"/></symbol><symbol id="close" viewBox="0 0 32 32"><path d="M18.3 16 31.5 2.8c.2-.3.4-.6.4-1 0-.9-.7-1.6-1.6-1.6-.4 0-.8.1-1 .4L16 13.7 2.8.5C2.6.2 2.1 0 1.7 0 .8 0 .1.7.1 1.6c0 .5.2.9.5 1.2L13.8 16 .6 29.2c-.4.3-.6.7-.6 1.2 0 .9.7 1.6 1.6 1.6.5 0 .9-.2 1.2-.6L16 18.2l13.2 13.2c.3.2.6.4 1 .4.9 0 1.6-.7 1.6-1.6 0-.4-.1-.8-.4-1L18.3 16z"/></symbol><symbol id="logo" viewBox="0 0 34 32"><path fill="#f8d24e" style="fill:var(--color2,#f8d24e)" d="M17.412 14.169c1.636-4.385-1.75-6.784-3.994-8.363-.429-.321-.858-.623-1.205-.898a4.206 4.206 0 0 1-1.31-1.939l-.008-.03a4.177 4.177 0 0 1-.027-2.39l-.007.029a.458.458 0 0 0-.133-.456.466.466 0 0 0-.476-.093l.003-.001a7.6 7.6 0 0 0-2.081 1.225A4.938 4.938 0 0 0 6.77 2.935l-.013.028a4.779 4.779 0 0 0-.51 2.152v.001a5.752 5.752 0 0 0-1.1 1.133l-.011.016a4.147 4.147 0 0 0-.819 2.702v-.01a5.325 5.325 0 0 0-1.475 2.254l-.011.038A5.31 5.31 0 0 0 2.689 14l-.006-.035a1.451 1.451 0 0 0-.602.704 1.412 1.412 0 0 0-.044.931l-.003-.01c.087.304.272.571.527.761s.567.292.886.289h.03v2.493c0 .253.102.496.283.675s.427.279.683.279h.751L6.417 30.56a.944.944 0 0 0 .313.605.976.976 0 0 0 .644.243h5.089c.238-.001.466-.087.644-.244s.29-.371.317-.604l1.223-10.473h.751c.256 0 .501-.1.683-.279s.282-.422.282-.675V16.64h.031c.403 0 .768-.162 1.034-.424.274-.27.429-.639.429-1.022v-.017c0-.398-.164-.757-.429-1.014l-.013.005zM6.399 6.214c.619 2.294 3.004 3.197 5.179 4.004a.471.471 0 0 0 .68-.224l.001-.003a.456.456 0 0 0-.163-.541l-.001-.001a.45.45 0 0 0-.185-.078h-.003c-2.342-.878-4.552-1.696-4.72-4.041a3.867 3.867 0 0 1 .367-1.899l-.01.023c.284-.6.694-1.099 1.199-1.48l.01-.007c.307-.254.65-.49 1.012-.694l.035-.018a5.438 5.438 0 0 0 .001.902l-.001-.02c.05.672.235 1.327.547 1.927a5.078 5.078 0 0 0 1.255 1.556l.008.007c.356.301.798.61 1.287.941 1.129.801 2.411 1.696 3.226 2.908.509.718.814 1.612.814 2.576 0 .623-.127 1.217-.357 1.756l.011-.029h-1.897c-3.908.001-8.4-1.068-9.289-4.061a3.39 3.39 0 0 1 .01-1.908l-.006.024a3.44 3.44 0 0 1 1.005-1.595l.003-.003-.021-.021zm3.518 14.455 1.433 1.416-1.433 1.417-1.433-1.425 1.433-1.408zm3.287 3.719-1.185 1.17-1.433-1.417 1.433-1.412 1.244 1.225-.06.432zm-3.287 3.248-1.434-1.417 1.433-1.417 1.433 1.417-1.433 1.417zm-.656-3.486-1.433 1.417-1.193-1.179-.051-.424 1.244-1.225 1.433 1.412zm-2.094 2.069-.287.284-.073-.645.36.361zm-.15 1.451.811-.802 1.574 1.569a.707.707 0 0 0 .03.092H7.115l-.099-.86zm4.994-.802.811.801-.098.848h-2.382l1.669-1.65zm.944-.364-.288-.284.365-.361-.077.645zm.429-3.707-.717-.721.91-.899-.193 1.62zm-1.378-1.365-1.36-1.34h2.72l-1.36 1.34zm-4.183 0-1.359-1.34h2.72l-1.36 1.34zm4.634 9.058H7.373a.034.034 0 0 1-.03-.03l-.121-1.018h5.389l-.116 1.018a.034.034 0 0 1-.034.03h-.004zm3.934-14.774h-1.493a.478.478 0 0 0-.359.118.46.46 0 0 0-.113.532l-.001-.003c.054.119.154.21.277.251l.003.001c.062.021.128.028.192.021h.533v2.493a.034.034 0 0 1-.034.03H4.425a.034.034 0 0 1-.034-.03v-2.493h8.499a.472.472 0 0 0 .301-.149.46.46 0 0 0-.3-.771H3.45a.536.536 0 0 1-.532-.308l-.001-.003a.518.518 0 0 1 .128-.599.532.532 0 0 1 .408-.135h-.002.974a.46.46 0 0 0 .3-.771.465.465 0 0 0-.3-.149h-.86a4.47 4.47 0 0 1 .066-1.976l-.007.031a4.535 4.535 0 0 1 .883-1.751l-.006.008c.301.924 1.073 2.188 3.004 3.193 1.815.937 4.218 1.416 7.14 1.416h1.716a.537.537 0 0 1 .408.136.522.522 0 0 1 .001.777.532.532 0 0 1-.409.135h.033zm3.426 12.199-.343.526.007.005.336-.531zm3.697.178.629-.014-.016-.727-.718.122.106.62zm.043 1.934.16.609.48-.127-.011-.496-.629.014zm-4.852.093.142-.613h-.004l-.138.613zm-2.395-1.069.407-.479-.001-.001-.405.48zm-.865-1.965.629.003v-.003h-.629zm.301-1.376-.565-.277v.001l.565.277zm1.929-1.645.223.587h.003l-.225-.587zm6.178-.16.627.049.041-.531-.517-.128-.151.61zm-.154 1.971-.117.619.69.13.055-.7-.627-.049zm-1.677-.806c-.944 0-1.737.1-2.317.356-.297.13-.567.314-.764.574a1.47 1.47 0 0 0-.299.893v.017-.001h1.257c0-.073.018-.114.045-.149a.673.673 0 0 1 .267-.182c.338-.149.92-.249 1.811-.249V25.07zm-3.38 1.838c0 .647.29 1.18.832 1.535l.687-1.054a.511.511 0 0 1-.261-.481h-1.259zm.84 1.539c.513.325 1.191.448 1.951.448v-1.259c-.656 0-1.055-.111-1.279-.252l-.673 1.063zm1.951.448c.747 0 1.476-.06 2.187-.181l-.21-1.24c-.64.109-1.299.164-1.977.164v1.257zm1.453-.788.043 1.934 1.257-.028-.043-1.934-1.257.028zm.512 1.312a9.365 9.365 0 0 1-2.383.287v1.258c.964 0 1.866-.107 2.702-.328l-.32-1.216zm-2.383.287c-.889 0-1.607-.07-2.168-.199l-.282 1.226c.684.157 1.505.231 2.451.231v-1.258zm-2.171-.199c-.601-.135-1.034-.277-1.323-.419l-.553 1.131c.415.203.956.371 1.6.515l.275-1.227zm-1.323-.419a3.832 3.832 0 0 1-.809-.521l.006.005-.813.959c.314.267.671.495 1.065.687l.552-1.13zm-.803-.517c-.428-.361-.647-.833-.644-1.482l-1.258-.006c-.005.989.353 1.828 1.089 2.449l.811-.961zm-.644-1.485c0-.423.083-.785.237-1.099l-1.129-.553a3.72 3.72 0 0 0-.366 1.653h1.258zm.236-1.098c.287-.582.791-1.033 1.587-1.335l-.446-1.175c-1.038.394-1.819 1.04-2.27 1.956l1.129.555zm1.59-1.337c.836-.321 1.771-.486 2.808-.486v-1.257c-1.173 0-2.261.186-3.259.57l.451 1.174zm2.808-.486c1.059 0 2.055.118 2.994.35l.302-1.22a13.314 13.314 0 0 0-3.228-.387h-.072.004v1.257zm2.518-.309-.154 1.972 1.254.097.154-1.971-1.254-.098zm.59 1.403a9.73 9.73 0 0 0-1.793-.19v1.259c.442 0 .961.053 1.559.166l.235-1.235zm6.137 1.004-.004.629.639.004-.007-.639-.628.007zm-.27-.817-.428.461.006.005.422-.466zm-1.567.062.436.454.004-.004-.44-.449zm-.381.743-.621-.102-.119.727.737.004.004-.629zm4.625 3.353.38.501.226-.171.021-.283-.627-.047zm-1.358.504-.135-.614-.004.001.139.614zm-4.716-.172-.215.591.005.002.21-.593zm-1.075-.571-.39.493.008.006.383-.498zm-.718-.903-.564.279.001.003.562-.282zm.737-3.814zm5.748-.682.252-.576-.006-.003-.245.579zm1.444 1.327-.566.275.001.004.565-.279zm.245 1.099.627.046.001-.023v-.023h-.629zm-.074 1.013-.003.629.587.003.043-.586-.627-.046zm-4.981-.024.004-.629-.821-.004.209.794.608-.161zm.713.878-.309.548.002.001.307-.549zm3.82-.215v-.629h-.126l-.116.048.242.58zm.331 0 .627.047.05-.676h-.678v.629zm-1.895-1.788c-.005-.455-.11-.943-.476-1.276l-.846.932c-.007-.007.007.001.026.055.018.058.037.154.038.302l1.258-.014zm-.471-1.27c-.33-.306-.763-.407-1.189-.407v1.257c.245 0 .32.059.334.071l.855-.921zm-1.189-.408c-.469 0-.904.146-1.244.48l.88.899c.069-.068.17-.121.365-.121v-1.259zm-1.24.477a1.913 1.913 0 0 0-.565 1.084l-.001.011 1.241.204a.66.66 0 0 1 .196-.391l-.871-.908zm.051 1.825 2.217.012.007-1.258-2.217-.012-.007 1.258zm4.248 2.223c-.138.105-.474.25-1.113.391l.27 1.228c.664-.146 1.232-.336 1.602-.617l-.759-1.003zm-1.116.391a7.95 7.95 0 0 1-1.759.206v1.257c.664 0 1.344-.08 2.037-.237l-.277-1.227zm-1.759.206c-.593 0-1.081-.028-1.47-.081l-.168 1.247c.462.063 1.01.092 1.638.092v-1.259zm-1.47-.081a5.707 5.707 0 0 1-1.18-.289l.04.013-.419 1.186c.399.147.869.265 1.354.333l.037.004.168-1.247zm-1.135-.274a3.37 3.37 0 0 1-.915-.486l.009.006-.765.998c.358.274.775.494 1.243.663l.429-1.182zm-.899-.474a2.027 2.027 0 0 1-.541-.679l-.005-.012-1.125.562c.219.443.519.815.884 1.11l.006.005.781-.986zm-.545-.688c-.132-.267-.211-.612-.211-1.054h-1.257c0 .59.105 1.134.341 1.611l1.127-.558zm-.211-1.054c0-.442.08-.833.231-1.18l-1.154-.501a4.124 4.124 0 0 0-.334 1.639v.044-.002h1.258zm.231-1.181c.159-.366.353-.636.572-.831l-.837-.94a3.577 3.577 0 0 0-.889 1.269l1.153.501zm.572-.831c.676-.602 1.707-.952 3.193-.952v-1.257c-1.668 0-3.044.391-4.03 1.271l.837.939zm3.193-.952c.666 0 1.295.127 1.892.38l.491-1.158a5.946 5.946 0 0 0-2.359-.479h-.024.001v1.257zm1.885.378c.557.243.917.587 1.129 1.025l1.131-.55c-.36-.741-.962-1.281-1.756-1.628l-.503 1.153zm1.131 1.029c.118.238.181.508.181.821h1.257c0-.489-.1-.953-.311-1.378l-1.128.557zm.183.775-.074 1.013 1.254.091.074-1.013-1.254-.091zm.557.43-4.981-.025-.006 1.258 4.981.024.006-1.258zm-5.593.764c.147.558.506.98 1.011 1.266l.619-1.095c-.249-.141-.364-.304-.414-.491l-1.216.32zm1.014 1.267c.511.285 1.148.4 1.861.4V27.95c-.597 0-.996-.099-1.247-.24l-.614 1.098zm1.861.399c.765 0 1.605-.207 2.508-.583l-.484-1.161c-.809.336-1.479.486-2.025.486v1.258zm2.266-.534h.331v-1.257h-.331v1.257zm-.296-.676-.117 1.56 1.254.094.117-1.56-1.254-.094z"/></symbol><symbol id="balloons_tab" viewBox="0 0 356 32"><path fill="#f8d24e" style="fill:var(--color1,#f8d24e)" d="M306.022 29.57c0 1.021-.832 1.849-1.857 1.849s-1.857-.828-1.857-1.849.832-1.849 1.857-1.849 1.857.828 1.857 1.849zM309.737 27.258c0 1.021-.832 1.849-1.857 1.849s-1.857-.828-1.857-1.849.832-1.849 1.857-1.849 1.857.828 1.857 1.849zM314.38 24.485c0 1.021-.832 1.849-1.857 1.849s-1.857-.828-1.857-1.849.832-1.849 1.857-1.849 1.857.828 1.857 1.849zM318.095 22.173c0 1.021-.832 1.849-1.857 1.849s-1.857-.828-1.857-1.849.832-1.849 1.857-1.849 1.857.828 1.857 1.849zM315.773 28.646c0 1.021-.832 1.849-1.857 1.849s-1.857-.828-1.857-1.849.832-1.849 1.857-1.849 1.857.828 1.857 1.849zM319.488 26.334c0 1.021-.832 1.849-1.857 1.849s-1.857-.828-1.857-1.849.832-1.849 1.857-1.849 1.857.828 1.857 1.849zM324.132 23.56c0 1.021-.832 1.849-1.857 1.849s-1.857-.828-1.857-1.849.832-1.849 1.857-1.849 1.857.828 1.857 1.849zM327.847 21.248c0 1.021-.832 1.849-1.857 1.849s-1.857-.828-1.857-1.849.832-1.849 1.857-1.849 1.857.828 1.857 1.849zM324.132 27.721c0 1.021-.832 1.849-1.857 1.849s-1.857-.828-1.857-1.849.832-1.849 1.857-1.849 1.857.828 1.857 1.849zM327.847 25.409c0 1.021-.832 1.849-1.857 1.849s-1.857-.828-1.857-1.849.832-1.849 1.857-1.849 1.857.828 1.857 1.849zM332.491 22.635c0 1.021-.832 1.849-1.857 1.849s-1.857-.828-1.857-1.849.832-1.849 1.857-1.849 1.857.828 1.857 1.849zM336.206 20.323c0 1.021-.832 1.849-1.857 1.849s-1.857-.828-1.857-1.849.832-1.849 1.857-1.849 1.857.828 1.857 1.849zM332.491 26.334c0 1.021-.832 1.849-1.857 1.849s-1.857-.828-1.857-1.849.832-1.849 1.857-1.849 1.857.828 1.857 1.849zM336.206 24.022c0 1.021-.832 1.849-1.857 1.849s-1.857-.828-1.857-1.849.832-1.849 1.857-1.849 1.857.828 1.857 1.849zM340.85 21.248c0 1.021-.832 1.849-1.857 1.849s-1.857-.828-1.857-1.849.832-1.849 1.857-1.849 1.857.828 1.857 1.849zM344.564 18.936c0 1.021-.832 1.849-1.857 1.849s-1.857-.828-1.857-1.849.832-1.849 1.857-1.849 1.857.828 1.857 1.849zM334.813 29.57c0 1.021-.832 1.849-1.857 1.849s-1.857-.828-1.857-1.849.832-1.849 1.857-1.849 1.857.828 1.857 1.849zM338.528 27.258c0 1.021-.832 1.849-1.857 1.849s-1.857-.828-1.857-1.849.832-1.849 1.857-1.849 1.857.828 1.857 1.849zM343.636 30.033c0 1.021-.832 1.849-1.857 1.849s-1.857-.828-1.857-1.849.832-1.849 1.857-1.849 1.857.828 1.857 1.849zM343.171 24.485c0 1.021-.832 1.849-1.857 1.849s-1.857-.828-1.857-1.849.832-1.849 1.857-1.849 1.857.828 1.857 1.849zM348.279 27.258c0 1.021-.832 1.849-1.857 1.849s-1.857-.828-1.857-1.849.832-1.849 1.857-1.849 1.857.828 1.857 1.849zM352.459 30.033c0 1.021-.832 1.849-1.857 1.849s-1.857-.828-1.857-1.849.832-1.849 1.857-1.849 1.857.828 1.857 1.849zM346.887 22.173c0 1.021-.832 1.849-1.857 1.849s-1.857-.828-1.857-1.849.832-1.849 1.857-1.849 1.857.828 1.857 1.849zM352.459 24.947c0 1.021-.832 1.849-1.857 1.849s-1.857-.828-1.857-1.849.832-1.849 1.857-1.849 1.857.828 1.857 1.849zM356.174 27.721c0 1.021-.832 1.849-1.857 1.849s-1.857-.828-1.857-1.849.832-1.849 1.857-1.849 1.857.828 1.857 1.849zM288.376 10.151c0 1.021-.832 1.849-1.857 1.849s-1.857-.828-1.857-1.849.832-1.849 1.857-1.849 1.857.828 1.857 1.849zM292.09 7.839c0 1.021-.832 1.849-1.857 1.849s-1.857-.828-1.857-1.849.832-1.849 1.857-1.849 1.857.828 1.857 1.849zM296.734 5.065c0 1.021-.832 1.849-1.857 1.849s-1.857-.828-1.857-1.849.832-1.849 1.857-1.849 1.857.828 1.857 1.849zM300.449 2.753c0 1.021-.832 1.85-1.857 1.85s-1.857-.828-1.857-1.849.832-1.849 1.857-1.849 1.857.828 1.857 1.849zM280.946 9.689c0 1.021-.832 1.85-1.857 1.85s-1.857-.828-1.857-1.849.832-1.849 1.857-1.849 1.857.828 1.857 1.849zM284.66 7.377c0 1.021-.832 1.849-1.857 1.849s-1.857-.828-1.857-1.849.832-1.849 1.857-1.849 1.857.828 1.857 1.849zM289.304 4.602c0 1.021-.832 1.849-1.857 1.849s-1.857-.828-1.857-1.849.832-1.849 1.857-1.849 1.857.828 1.857 1.849zM293.019 2.291c0 1.021-.832 1.849-1.857 1.849s-1.857-.828-1.857-1.849.832-1.849 1.857-1.849 1.857.828 1.857 1.849zM297.198 29.57c0 1.021-.832 1.849-1.857 1.849s-1.857-.828-1.857-1.849.832-1.849 1.857-1.849 1.857.828 1.857 1.849zM300.914 27.258c0 1.021-.832 1.849-1.857 1.849s-1.857-.828-1.857-1.849.832-1.849 1.857-1.849 1.857.828 1.857 1.849zM305.557 24.485c0 1.021-.832 1.849-1.857 1.849s-1.857-.828-1.857-1.849.832-1.849 1.857-1.849 1.857.828 1.857 1.849zM309.272 22.173c0 1.021-.832 1.849-1.857 1.849s-1.857-.828-1.857-1.849.832-1.849 1.857-1.849 1.857.828 1.857 1.849zM292.555 28.183c0 1.021-.832 1.849-1.857 1.849s-1.857-.828-1.857-1.849.832-1.849 1.857-1.849 1.857.828 1.857 1.849zM296.269 25.871c0 1.021-.832 1.849-1.857 1.849s-1.857-.828-1.857-1.849.832-1.849 1.857-1.849 1.857.828 1.857 1.849zM300.914 23.098c0 1.021-.832 1.849-1.857 1.849s-1.857-.828-1.857-1.849.832-1.849 1.857-1.849 1.857.828 1.857 1.849zM304.628 20.786c0 1.021-.832 1.849-1.857 1.849s-1.857-.828-1.857-1.849.832-1.849 1.857-1.849 1.857.828 1.857 1.849zM294.413 21.71c0 1.021-.832 1.849-1.857 1.849s-1.857-.828-1.857-1.849.832-1.849 1.857-1.849 1.857.828 1.857 1.849zM298.127 19.398c0 1.021-.832 1.849-1.857 1.849s-1.857-.828-1.857-1.849.832-1.849 1.857-1.849 1.857.828 1.857 1.849zM302.771 16.624c0 1.021-.832 1.849-1.857 1.849s-1.857-.828-1.857-1.849.832-1.849 1.857-1.849 1.857.828 1.857 1.849zM306.486 14.312c0 1.021-.832 1.849-1.857 1.849s-1.857-.828-1.857-1.849.832-1.849 1.857-1.849 1.857.828 1.857 1.849zM294.413 11.076c0 1.021-.832 1.849-1.857 1.849s-1.857-.828-1.857-1.849.832-1.849 1.857-1.849 1.857.828 1.857 1.849zM298.127 8.764c0 1.021-.832 1.849-1.857 1.849s-1.857-.828-1.857-1.849.832-1.849 1.857-1.849 1.857.828 1.857 1.849zM302.771 5.99c0 1.021-.832 1.849-1.857 1.849s-1.857-.828-1.857-1.849.832-1.849 1.857-1.849 1.857.828 1.857 1.849zM306.486 3.678c0 1.021-.832 1.849-1.857 1.849s-1.857-.828-1.857-1.849.832-1.849 1.857-1.849 1.857.828 1.857 1.849zM293.484 17.087c0 1.021-.832 1.849-1.857 1.849s-1.857-.828-1.857-1.849.832-1.849 1.857-1.849 1.857.828 1.857 1.849zM297.198 14.775c0 1.021-.832 1.85-1.857 1.85s-1.857-.828-1.857-1.849.832-1.849 1.857-1.849 1.857.828 1.857 1.849zM301.842 12c0 1.021-.832 1.849-1.857 1.849s-1.857-.828-1.857-1.849.832-1.849 1.857-1.849 1.857.828 1.857 1.849zM305.557 9.689c0 1.021-.832 1.85-1.857 1.85s-1.857-.828-1.857-1.849.832-1.849 1.857-1.849 1.857.828 1.857 1.849zM274.909 8.301c0 1.021-.728 1.85-1.625 1.85s-1.625-.828-1.625-1.849.728-1.849 1.625-1.849 1.625.828 1.625 1.849zM278.624 5.99c0 1.021-.728 1.849-1.625 1.849s-1.625-.828-1.625-1.849.728-1.849 1.625-1.849 1.625.828 1.625 1.849zM283.268 3.215c0 1.021-.728 1.85-1.625 1.85s-1.625-.828-1.625-1.849.728-1.849 1.625-1.849 1.625.828 1.625 1.849z"/><path fill="#f8d24e" style="fill:var(--color1,#f8d24e)" d="M281.178 10.151c.898 0 1.625-.828 1.625-1.849s-.728-1.849-1.625-1.849-1.625.828-1.625 1.849.728 1.849 1.625 1.849zM3.715 27.362a1.856 1.856 0 1 1-3.712-.002 1.856 1.856 0 0 1 3.712.002zM7.43 25.043a1.856 1.856 0 1 1-3.712-.002 1.856 1.856 0 0 1 3.712.002zM12.074 22.261a1.856 1.856 0 1 1-3.712-.002 1.856 1.856 0 0 1 3.712.002zM15.789 19.942a1.856 1.856 0 1 1-3.712-.002 1.856 1.856 0 0 1 3.712.002zM26.005 28.29a1.856 1.856 0 1 1-3.712-.002 1.856 1.856 0 0 1 3.712.002zM29.72 25.971a1.856 1.856 0 1 1-3.712-.002 1.856 1.856 0 0 1 3.712.002zM34.363 23.188a1.856 1.856 0 1 1-3.712-.002 1.856 1.856 0 0 1 3.712.002zM38.079 20.87a1.856 1.856 0 1 1-3.712-.002 1.856 1.856 0 0 1 3.712.002z"/><path fill="#f8d24e" style="fill:var(--color1,#f8d24e)" d="M34.364 26.899c0 1.025-.728 1.855-1.626 1.855s-1.625-.831-1.625-1.855c0-1.025.728-1.855 1.625-1.855s1.626.831 1.626 1.855zM38.079 24.58c0 1.025-.728 1.855-1.626 1.855s-1.626-.831-1.626-1.855c0-1.025.728-1.855 1.626-1.855s1.626.831 1.626 1.855zM42.258 22.261c0 1.025-.728 1.855-1.626 1.855s-1.626-.831-1.626-1.855c0-1.025.728-1.855 1.626-1.855s1.626.831 1.626 1.855zM46.438 19.942c0 1.025-.728 1.855-1.626 1.855s-1.626-.831-1.626-1.855c0-1.025.728-1.855 1.626-1.855s1.626.831 1.626 1.855zM51.081 16.232c0 1.025-.728 1.855-1.626 1.855s-1.626-.831-1.626-1.855c0-1.025.728-1.855 1.626-1.855s1.626.831 1.626 1.855zM41.33 18.087c0 1.025-.728 1.855-1.626 1.855s-1.626-.831-1.626-1.855c0-1.025.728-1.855 1.626-1.855s1.626.831 1.626 1.855zM17.646 28.29a1.856 1.856 0 1 1-3.712-.002 1.856 1.856 0 0 1 3.712.002zM21.361 25.971a1.856 1.856 0 1 1-3.712-.002 1.856 1.856 0 0 1 3.712.002zM26.005 23.188a1.856 1.856 0 1 1-3.712-.002 1.856 1.856 0 0 1 3.712.002zM29.72 20.87a1.856 1.856 0 1 1-3.712-.002 1.856 1.856 0 0 1 3.712.002zM10.216 27.826a1.856 1.856 0 1 1-3.712-.002 1.856 1.856 0 0 1 3.712.002zM13.931 25.507a1.856 1.856 0 1 1-3.712-.002 1.856 1.856 0 0 1 3.712.002zM18.575 22.725a1.856 1.856 0 1 1-3.712-.002 1.856 1.856 0 0 1 3.712.002zM22.29 20.406a1.856 1.856 0 1 1-3.712-.002 1.856 1.856 0 0 1 3.712.002z"/></symbol><symbol id="balloons_desk" viewBox="0 0 100 32"><path fill="#f8d24e" style="fill:var(--color1,#f8d24e)" d="M45.81 25.797c0 .287-.219.52-.488.52s-.488-.233-.488-.52c0-.287.219-.52.488-.52s.488.233.488.52zM46.949 25.104c0 .287-.219.52-.488.52s-.488-.233-.488-.52c0-.287.219-.52.488-.52s.488.233.488.52zM44.915 27.705c0 .287-.219.52-.488.52s-.488-.233-.488-.52c0-.287.219-.52.488-.52s.488.233.488.52zM45.972 27.011c0 .287-.219.52-.488.52s-.488-.233-.488-.52c0-.287.219-.52.488-.52s.488.233.488.52zM47.193 26.231c0 .287-.219.52-.488.52s-.488-.233-.488-.52c0-.287.219-.52.488-.52s.488.233.488.52zM48.332 25.537c0 .287-.219.52-.488.52s-.488-.233-.488-.52c0-.287.219-.52.488-.52s.488.233.488.52z"/><path fill="#f8d24e" style="fill:var(--color1,#f8d24e)" d="M46.705 27.792c0 .287-.219.52-.488.52s-.488-.233-.488-.52c0-.287.219-.52.488-.52s.488.233.488.52zM47.762 27.098c0 .287-.219.52-.488.52s-.488-.233-.488-.52c0-.287.219-.52.488-.52s.488.233.488.52zM48.983 26.318c0 .287-.219.52-.488.52s-.488-.233-.488-.52c0-.287.219-.52.488-.52s.488.233.488.52zM50.122 25.624c0 .287-.219.52-.488.52s-.488-.233-.488-.52c0-.287.219-.52.488-.52s.488.233.488.52zM48.82 27.792c0 .287-.219.52-.488.52s-.488-.233-.488-.52c0-.287.219-.52.488-.52s.488.233.488.52zM49.878 27.098c0 .287-.219.52-.488.52s-.488-.233-.488-.52c0-.287.219-.52.488-.52s.488.233.488.52zM51.098 26.318c0 .287-.219.52-.488.52s-.488-.233-.488-.52c0-.287.219-.52.488-.52s.488.233.488.52zM52.238 25.624c0 .287-.219.52-.488.52s-.488-.233-.488-.52c0-.287.219-.52.488-.52s.488.233.488.52z"/><path fill="#f8d24e" style="fill:var(--color1,#f8d24e)" d="M50.61 27.705c0 .287-.219.52-.488.52s-.488-.233-.488-.52c0-.287.219-.52.488-.52s.488.233.488.52zM51.668 27.011c0 .287-.219.52-.488.52s-.488-.233-.488-.52c0-.287.219-.52.488-.52s.488.233.488.52zM52.889 26.231c0 .287-.219.52-.488.52s-.488-.233-.488-.52c0-.287.219-.52.488-.52s.488.233.488.52zM54.028 25.537c0 .287-.219.52-.488.52s-.488-.233-.488-.52c0-.287.219-.52.488-.52s.488.233.488.52zM52.644 27.618c0 .287-.219.52-.488.52s-.488-.233-.488-.52c0-.287.219-.52.488-.52s.488.233.488.52zM53.702 26.925c0 .287-.219.52-.488.52s-.488-.233-.488-.52c0-.287.219-.52.488-.52s.488.233.488.52zM54.923 26.144c0 .287-.219.52-.488.52s-.488-.233-.488-.52c0-.287.219-.52.488-.52s.488.233.488.52zM56.062 25.45c0 .287-.219.52-.488.52s-.488-.233-.488-.52c0-.287.219-.52.488-.52s.488.233.488.52z"/><path fill="#f8d24e" style="fill:var(--color1,#f8d24e)" d="M54.516 25.364c0 .287-.219.52-.488.52s-.488-.233-.488-.52c0-.287.219-.52.488-.52s.488.233.488.52zM55.574 24.67c0 .287-.219.52-.488.52s-.488-.233-.488-.52c0-.287.219-.52.488-.52s.488.233.488.52zM56.794 23.889c0 .287-.219.52-.488.52s-.488-.233-.488-.52c0-.287.219-.52.488-.52s.488.233.488.52zM57.933 23.196c0 .287-.219.52-.488.52s-.488-.233-.488-.52c0-.287.219-.52.488-.52s.488.233.488.52z"/></symbol><symbol id="balloons_mob" viewBox="0 0 205 32"><path fill="#f8d24e" style="fill:var(--color1,#f8d24e)" d="M156.54 29.617c0 .982-.745 1.779-1.664 1.779s-1.664-.796-1.664-1.779c0-.982.745-1.779 1.664-1.779s1.664.796 1.664 1.779zM160.146 27.245c0 .982-.745 1.779-1.664 1.779s-1.664-.796-1.664-1.779c0-.982.745-1.779 1.664-1.779s1.664.796 1.664 1.779zM164.305 24.578c0 .982-.745 1.779-1.664 1.779s-1.664-.796-1.664-1.779c0-.982.745-1.779 1.664-1.779s1.664.796 1.664 1.779zM168.189 22.207c0 .982-.745 1.779-1.664 1.779s-1.664-.796-1.664-1.779c0-.982.745-1.779 1.664-1.779s1.664.796 1.664 1.779zM165.969 28.431c0 .982-.745 1.779-1.664 1.779s-1.664-.796-1.664-1.779c0-.982.745-1.779 1.664-1.779s1.664.796 1.664 1.779zM169.575 26.06c0 .982-.745 1.779-1.664 1.779s-1.664-.796-1.664-1.779c0-.982.745-1.779 1.664-1.779s1.664.796 1.664 1.779zM173.734 23.392c0 .982-.745 1.779-1.664 1.779s-1.664-.796-1.664-1.779c0-.982.745-1.779 1.664-1.779s1.664.796 1.664 1.779zM177.619 21.021c0 .982-.745 1.779-1.664 1.779s-1.664-.796-1.664-1.779c0-.982.745-1.779 1.664-1.779s1.664.796 1.664 1.779zM174.013 27.542c0 .982-.745 1.779-1.664 1.779s-1.664-.796-1.664-1.779c0-.982.745-1.779 1.664-1.779s1.664.796 1.664 1.779zM177.619 25.171c0 .982-.745 1.779-1.664 1.779s-1.664-.796-1.664-1.779c0-.982.745-1.779 1.664-1.779s1.664.796 1.664 1.779zM181.779 22.503c0 .982-.745 1.779-1.664 1.779s-1.664-.796-1.664-1.779c0-.982.745-1.779 1.664-1.779s1.664.796 1.664 1.779zM185.661 20.132c0 .982-.745 1.779-1.664 1.779s-1.664-.796-1.664-1.779c0-.982.745-1.779 1.664-1.779s1.664.796 1.664 1.779zM181.778 26.356c0 .982-.745 1.779-1.664 1.779s-1.664-.796-1.664-1.779c0-.982.745-1.779 1.664-1.779s1.664.796 1.664 1.779zM185.383 23.985c0 .982-.745 1.779-1.664 1.779s-1.664-.796-1.664-1.779c0-.982.745-1.779 1.664-1.779s1.664.796 1.664 1.779zM189.543 21.318c0 .982-.745 1.779-1.664 1.779s-1.664-.796-1.664-1.779c0-.982.745-1.779 1.664-1.779s1.664.796 1.664 1.779zM193.427 18.947c0 .982-.745 1.779-1.664 1.779s-1.664-.796-1.664-1.779c0-.982.745-1.779 1.664-1.779s1.664.796 1.664 1.779zM184.276 29.617c0 .982-.745 1.779-1.664 1.779s-1.664-.796-1.664-1.779c0-.982.745-1.779 1.664-1.779s1.664.796 1.664 1.779zM187.882 27.245c0 .982-.745 1.779-1.664 1.779s-1.664-.796-1.664-1.779c0-.982.745-1.779 1.664-1.779s1.664.796 1.664 1.779zM192.874 29.913c0 .982-.745 1.779-1.664 1.779s-1.664-.796-1.664-1.779c0-.982.745-1.779 1.664-1.779s1.664.796 1.664 1.779zM192.042 24.578c0 .982-.745 1.779-1.664 1.779s-1.664-.796-1.664-1.779c0-.982.745-1.779 1.664-1.779s1.664.796 1.664 1.779zM197.034 27.245c0 .982-.745 1.779-1.664 1.779s-1.664-.796-1.664-1.779c0-.982.745-1.779 1.664-1.779s1.664.796 1.664 1.779zM200.918 29.913c0 .982-.745 1.779-1.664 1.779s-1.664-.796-1.664-1.779c0-.982.745-1.779 1.664-1.779s1.664.796 1.664 1.779zM195.925 22.207c0 .982-.745 1.779-1.664 1.779s-1.664-.796-1.664-1.779c0-.982.745-1.779 1.664-1.779s1.664.796 1.664 1.779zM200.918 24.874c0 .982-.745 1.779-1.664 1.779s-1.664-.796-1.664-1.779c0-.982.745-1.779 1.664-1.779s1.664.796 1.664 1.779zM204.801 27.542c0 .982-.745 1.779-1.664 1.779s-1.664-.796-1.664-1.779c0-.982.745-1.779 1.664-1.779s1.664.796 1.664 1.779zM139.622 10.055c0 .982-.745 1.779-1.664 1.779s-1.664-.796-1.664-1.779c0-.982.745-1.779 1.664-1.779s1.664.796 1.664 1.779zM143.227 7.684c0 .982-.745 1.779-1.664 1.779s-1.664-.796-1.664-1.779c0-.982.745-1.779 1.664-1.779s1.664.796 1.664 1.779zM147.388 5.016c0 .982-.745 1.779-1.664 1.779s-1.664-.796-1.664-1.779c0-.982.745-1.779 1.664-1.779s1.664.796 1.664 1.779zM151.27 2.645c0 .982-.745 1.779-1.664 1.779s-1.664-.796-1.664-1.779c0-.982.745-1.779 1.664-1.779s1.664.796 1.664 1.779zM132.687 9.758c0 .982-.745 1.779-1.664 1.779s-1.664-.796-1.664-1.779c0-.982.745-1.779 1.664-1.779s1.664.796 1.664 1.779zM136.292 7.387c0 .982-.745 1.779-1.664 1.779s-1.664-.796-1.664-1.779c0-.982.745-1.779 1.664-1.779s1.664.796 1.664 1.779zM140.452 4.72c0 .982-.745 1.779-1.664 1.779s-1.664-.796-1.664-1.779c0-.982.745-1.779 1.664-1.779s1.664.796 1.664 1.779zM144.335 2.349c0 .982-.745 1.779-1.664 1.779s-1.664-.796-1.664-1.779c0-.982.745-1.779 1.664-1.779s1.664.796 1.664 1.779zM148.219 29.617c0 .982-.745 1.779-1.664 1.779s-1.664-.796-1.664-1.779c0-.982.745-1.779 1.664-1.779s1.664.796 1.664 1.779zM151.824 27.245c0 .982-.745 1.779-1.664 1.779s-1.664-.796-1.664-1.779c0-.982.745-1.779 1.664-1.779s1.664.796 1.664 1.779zM155.984 24.578c0 .982-.745 1.779-1.664 1.779s-1.664-.796-1.664-1.779c0-.982.745-1.779 1.664-1.779s1.664.796 1.664 1.779zM159.868 22.207c0 .982-.745 1.779-1.664 1.779s-1.664-.796-1.664-1.779c0-.982.745-1.779 1.664-1.779s1.664.796 1.664 1.779zM143.781 27.839c0 .982-.745 1.779-1.664 1.779s-1.664-.796-1.664-1.779c0-.982.745-1.779 1.664-1.779s1.664.796 1.664 1.779zM147.387 25.468c0 .982-.745 1.779-1.664 1.779s-1.664-.796-1.664-1.779c0-.982.745-1.779 1.664-1.779s1.664.796 1.664 1.779zM151.547 22.799c0 .982-.745 1.779-1.664 1.779s-1.664-.796-1.664-1.779c0-.982.745-1.779 1.664-1.779s1.664.796 1.664 1.779zM155.43 20.429c0 .982-.745 1.779-1.664 1.779s-1.664-.796-1.664-1.779c0-.982.745-1.779 1.664-1.779s1.664.796 1.664 1.779zM145.446 21.614c0 .982-.745 1.779-1.664 1.779s-1.664-.796-1.664-1.779c0-.982.745-1.779 1.664-1.779s1.664.796 1.664 1.779zM149.051 19.243c0 .982-.745 1.779-1.664 1.779s-1.664-.796-1.664-1.779c0-.982.745-1.779 1.664-1.779s1.664.796 1.664 1.779zM153.212 16.575c0 .982-.745 1.779-1.664 1.779s-1.664-.796-1.664-1.779c0-.982.745-1.779 1.664-1.779s1.664.796 1.664 1.779zM157.094 14.204c0 .982-.745 1.779-1.664 1.779s-1.664-.796-1.664-1.779c0-.982.745-1.779 1.664-1.779s1.664.796 1.664 1.779zM145.446 11.24c0 .982-.745 1.779-1.664 1.779s-1.664-.796-1.664-1.779c0-.982.745-1.779 1.664-1.779s1.664.796 1.664 1.779zM149.051 8.869c0 .982-.745 1.779-1.664 1.779s-1.664-.796-1.664-1.779c0-.982.745-1.779 1.664-1.779s1.664.796 1.664 1.779zM153.212 6.202c0 .982-.745 1.779-1.664 1.779s-1.664-.796-1.664-1.779c0-.982.745-1.779 1.664-1.779s1.664.796 1.664 1.779zM157.094 3.83c0 .982-.745 1.779-1.664 1.779s-1.664-.796-1.664-1.779c0-.982.745-1.779 1.664-1.779s1.664.796 1.664 1.779zM144.613 16.872c0 .982-.745 1.779-1.664 1.779s-1.664-.796-1.664-1.779c0-.982.745-1.779 1.664-1.779s1.664.796 1.664 1.779zM148.22 14.5c0 .982-.745 1.779-1.664 1.779s-1.664-.796-1.664-1.779c0-.982.745-1.779 1.664-1.779s1.664.796 1.664 1.779zM152.379 11.834c0 .982-.745 1.779-1.664 1.779s-1.664-.796-1.664-1.779c0-.982.745-1.779 1.664-1.779s1.664.796 1.664 1.779zM156.262 9.462c0 .982-.745 1.779-1.664 1.779s-1.664-.796-1.664-1.779c0-.982.745-1.779 1.664-1.779s1.664.796 1.664 1.779zM127.14 8.276c0 .982-.745 1.779-1.664 1.779s-1.664-.796-1.664-1.779c0-.982.745-1.779 1.664-1.779s1.664.796 1.664 1.779zM130.746 5.905c0 .982-.745 1.779-1.664 1.779s-1.664-.796-1.664-1.779c0-.982.745-1.779 1.664-1.779s1.664.796 1.664 1.779zM134.906 3.238c0 .982-.745 1.779-1.664 1.779s-1.664-.796-1.664-1.779c0-.982.745-1.779 1.664-1.779s1.664.796 1.664 1.779z"/><path fill="#f8d24e" style="fill:var(--color1,#f8d24e)" d="M132.964 10.054c.919 0 1.665-.796 1.665-1.778s-.746-1.779-1.665-1.779-1.664.796-1.664 1.779c0 .982.745 1.778 1.664 1.778zM56.441 21.475c.141.985-.491 1.907-1.413 2.058s-1.784-.525-1.925-1.511c-.141-.985.491-1.907 1.413-2.058s1.784.525 1.925 1.511zM59.717 18.504c.141.985-.491 1.907-1.413 2.058s-1.784-.525-1.925-1.511c-.141-.985.491-1.907 1.413-2.058s1.784.525 1.925 1.511zM63.506 15.144c.141.985-.491 1.906-1.413 2.058s-1.784-.525-1.925-1.511c-.141-.985.491-1.906 1.413-2.058s1.784.525 1.925 1.511zM67.06 12.128c.141.985-.491 1.906-1.413 2.058s-1.784-.525-1.925-1.511c-.141-.985.491-1.906 1.413-2.058s1.784.525 1.925 1.511zM3.482 21.473c0 .997-.779 1.805-1.741 1.805S0 22.47 0 21.473c0-.997.779-1.805 1.741-1.805s1.741.808 1.741 1.805zM7.252 19.067c0 .997-.779 1.805-1.741 1.805s-1.741-.808-1.741-1.805c0-.997.779-1.805 1.741-1.805s1.741.808 1.741 1.805zM11.605 16.36c0 .997-.779 1.805-1.741 1.805s-1.741-.808-1.741-1.805c0-.997.779-1.805 1.741-1.805s1.741.808 1.741 1.805zM15.666 13.953c0 .997-.779 1.805-1.741 1.805s-1.741-.808-1.741-1.805c0-.997.779-1.805 1.741-1.805s1.741.808 1.741 1.805zM5.222 25.984c0 .997-.779 1.805-1.741 1.805s-1.741-.808-1.741-1.805c0-.997.779-1.805 1.741-1.805s1.741.808 1.741 1.805zM8.994 23.578c0 .997-.779 1.805-1.741 1.805s-1.741-.808-1.741-1.805c0-.997.779-1.805 1.741-1.805s1.741.808 1.741 1.805zM13.347 20.871c0 .997-.779 1.805-1.741 1.805s-1.741-.808-1.741-1.805c0-.997.779-1.805 1.741-1.805s1.741.808 1.741 1.805zM17.407 18.465c0 .997-.779 1.805-1.741 1.805s-1.741-.808-1.741-1.805c0-.997.779-1.805 1.741-1.805s1.741.808 1.741 1.805zM9.573 28.39c0 .997-.779 1.805-1.741 1.805s-1.741-.808-1.741-1.805c0-.997.779-1.805 1.741-1.805s1.741.808 1.741 1.805zM13.345 25.984c0 .997-.779 1.805-1.741 1.805s-1.741-.808-1.741-1.805c0-.997.779-1.805 1.741-1.805s1.741.808 1.741 1.805zM17.697 23.277c0 .997-.779 1.805-1.741 1.805s-1.741-.808-1.741-1.805c0-.997.779-1.805 1.741-1.805s1.741.808 1.741 1.805zM21.757 20.871c0 .997-.779 1.805-1.741 1.805s-1.741-.808-1.741-1.805c0-.997.779-1.805 1.741-1.805s1.741.808 1.741 1.805zM14.504 29.895c0 .997-.779 1.805-1.741 1.805s-1.741-.808-1.741-1.805c0-.997.779-1.805 1.741-1.805s1.741.808 1.741 1.805zM18.276 27.488c0 .997-.779 1.805-1.741 1.805s-1.741-.808-1.741-1.805c0-.997.779-1.805 1.741-1.805s1.741.808 1.741 1.805zM22.629 24.781c0 .997-.779 1.805-1.741 1.805s-1.741-.808-1.741-1.805c0-.997.779-1.805 1.741-1.805s1.741.808 1.741 1.805zM26.689 22.375c0 .997-.779 1.805-1.741 1.805s-1.741-.808-1.741-1.805c0-.997.779-1.805 1.741-1.805s1.741.808 1.741 1.805z"/><path fill="#f8d24e" style="fill:var(--color1,#f8d24e)" d="M20.888 30.196c0 .997-.779 1.805-1.741 1.805s-1.741-.808-1.741-1.805c0-.997.779-1.805 1.741-1.805s1.741.808 1.741 1.805zM24.659 27.789c0 .997-.779 1.805-1.741 1.805s-1.741-.808-1.741-1.805c0-.997.779-1.805 1.741-1.805s1.741.808 1.741 1.805zM29.011 25.082c0 .997-.779 1.805-1.741 1.805s-1.741-.808-1.741-1.805c0-.997.779-1.805 1.741-1.805s1.741.808 1.741 1.805zM33.072 22.676c0 .997-.779 1.805-1.741 1.805s-1.741-.808-1.741-1.805c0-.997.779-1.805 1.741-1.805s1.741.808 1.741 1.805zM28.431 30.195c0 .997-.779 1.805-1.741 1.805s-1.741-.808-1.741-1.805c0-.997.779-1.805 1.741-1.805s1.741.808 1.741 1.805zM32.202 27.789c0 .997-.779 1.805-1.741 1.805s-1.741-.808-1.741-1.805c0-.997.779-1.805 1.741-1.805s1.741.808 1.741 1.805zM36.554 25.082c0 .997-.779 1.805-1.741 1.805s-1.741-.808-1.741-1.805c0-.997.779-1.805 1.741-1.805s1.741.808 1.741 1.805zM40.616 22.676c0 .997-.779 1.805-1.741 1.805s-1.741-.808-1.741-1.805c0-.997.779-1.805 1.741-1.805s1.741.808 1.741 1.805z"/><path fill="#f8d24e" style="fill:var(--color1,#f8d24e)" d="M34.812 29.894c0 .997-.779 1.805-1.741 1.805s-1.741-.808-1.741-1.805c0-.997.779-1.805 1.741-1.805s1.741.808 1.741 1.805zM38.583 27.488c0 .997-.779 1.805-1.741 1.805s-1.741-.808-1.741-1.805c0-.997.779-1.805 1.741-1.805s1.741.808 1.741 1.805zM42.936 24.781c0 .997-.779 1.805-1.741 1.805s-1.741-.808-1.741-1.805c0-.997.779-1.805 1.741-1.805s1.741.808 1.741 1.805zM46.996 22.375c0 .997-.779 1.805-1.741 1.805s-1.741-.808-1.741-1.805c0-.997.779-1.805 1.741-1.805s1.741.808 1.741 1.805zM42.065 29.594c0 .997-.779 1.805-1.741 1.805s-1.741-.808-1.741-1.805c0-.997.779-1.805 1.741-1.805s1.741.808 1.741 1.805zM45.836 27.187c0 .997-.779 1.805-1.741 1.805s-1.741-.808-1.741-1.805c0-.997.779-1.805 1.741-1.805s1.741.808 1.741 1.805zM50.188 24.481c0 .997-.779 1.805-1.741 1.805s-1.741-.808-1.741-1.805c0-.997.779-1.805 1.741-1.805s1.741.808 1.741 1.805zM54.249 22.074c0 .997-.779 1.805-1.741 1.805s-1.741-.808-1.741-1.805c0-.997.779-1.805 1.741-1.805s1.741.808 1.741 1.805z"/><path fill="#f8d24e" style="fill:var(--color1,#f8d24e)" d="M48.737 21.773c0 .997-.779 1.805-1.741 1.805s-1.741-.808-1.741-1.805c0-.997.779-1.805 1.741-1.805s1.741.808 1.741 1.805zM52.508 19.367c0 .997-.779 1.805-1.741 1.805s-1.741-.808-1.741-1.805c0-.997.779-1.805 1.741-1.805s1.741.808 1.741 1.805zM56.86 16.66c0 .997-.779 1.805-1.741 1.805s-1.741-.808-1.741-1.805c0-.997.779-1.805 1.741-1.805s1.741.808 1.741 1.805zM60.922 14.254c0 .997-.779 1.805-1.741 1.805s-1.741-.808-1.741-1.805c0-.997.779-1.805 1.741-1.805s1.741.808 1.741 1.805z"/></symbol></defs></svg>